Coordinates
version=1
nRows=19
nColumns=24
inDegrees=yes

Units are S.I. units (second, meters, Newtons, ...)
Angles are in degrees.

endheader
time	pelvis_tilt	pelvis_list	pelvis_rotation	pelvis_tx	pelvis_ty	pelvis_tz	hip_flexion_r	hip_adduction_r	hip_rotation_r	knee_angle_r	ankle_angle_r	subtalar_angle_r	mtp_angle_r	hip_flexion_l	hip_adduction_l	hip_rotation_l	knee_angle_l	ankle_angle_l	subtalar_angle_l	mtp_angle_l	lumbar_extension	lumbar_bending	lumbar_rotation
      0.95850000	      4.41437257	     -2.29596364	     -1.53338109	     -0.36206143	      1.07841347	      0.30229272	      1.31192724	      8.28874295	     -3.40208479	     -8.62266451	     -1.72328123	     -9.70051688	      7.77842336	      7.51045909	     -3.70052332	     -1.03922630	    -60.42352091	     -3.17801408	     -7.46033422	     15.58641914	     -0.40518942	      7.11546050	      1.29202824
      0.96266667	      4.44200865	     -2.29673507	     -1.64330583	     -0.35715306	      1.07901858	      0.30266652	      0.83494725	      8.29871259	     -3.26429333	     -8.32446172	     -1.66314043	     -9.60523060	      7.77932358	      7.99619760	     -3.63699318	     -0.81674924	    -60.11974654	     -2.71738729	     -7.89476424	     15.51488874	     -0.43294908	      7.08491008	      1.32497908
      0.96683333	      4.45348079	     -2.28963221	     -1.77852374	     -0.35229643	      1.07958230	      0.30305432	      0.38633510	      8.29685762	     -3.13943681	     -8.04256387	     -1.60229556	     -9.51499069	      7.77941518	      8.48543112	     -3.56444669	     -0.61727208	    -59.76561511	     -2.26992985	     -8.36589116	     15.42639170	     -0.47424816	      7.06031971	      1.39862436
      0.97100000	      4.47668275	     -2.26819804	     -1.96483724	     -0.34745442	      1.08015278	      0.30339143	     -0.06345495	      8.26536733	     -3.03377960	     -7.79220671	     -1.53250928	     -9.42672124	      7.77726656	      8.93518214	     -3.46843874	     -0.46684998	    -59.34979390	     -1.84616457	     -8.93481829	     15.27070410	     -0.55491165	      7.06539339	      1.54839182
      0.97516667	      4.45751568	     -2.25377954	     -2.06420683	     -0.34260290	      1.08062809	      0.30369244	     -0.48933584	      8.25044555	     -2.88071772	     -7.49409880	     -1.50252901	     -9.36183586	      7.77738951	      9.44183472	     -3.38001246	     -0.20975600	    -58.89625557	     -1.65914190	     -9.12752614	     15.22802384	     -0.59271828	      7.04253435	      1.60768331
      0.97933333	      4.48313683	     -2.27507772	     -2.16529573	     -0.33776016	      1.08112009	      0.30420833	     -0.97850095	      8.29773147	     -2.68839498	     -7.14748823	     -1.44870144	     -9.28066548	      7.77618849	      9.88731251	     -3.35757364	     -0.00421436	    -58.42430747	     -1.21272557	     -9.62474201	     15.14023846	     -0.56007101	      6.98911617	      1.75021033
      0.98350000	      4.47537707	     -2.24415336	     -2.38861070	     -0.33296116	      1.08157530	      0.30455909	     -1.38877697	      8.24849090	     -2.55526300	     -6.90744090	     -1.38627352	     -9.24862202	      7.76912702	     10.32820527	     -3.25738288	      0.09824640	    -57.86680070	     -0.83661717	    -10.29272971	     14.94280565	     -0.65815855	      7.01064393	      2.01119923
      0.98766667	      4.46158003	     -2.25305801	     -2.46388717	     -0.32815589	      1.08195035	      0.30495887	     -1.83242843	      8.27260411	     -2.36593494	     -6.56469287	     -1.35128790	     -9.17454125	      7.76700577	     10.79951054	     -3.20992396	      0.35312140	    -57.29497672	     -0.64012619	    -10.57164954	     14.85661789	     -0.63816184	      6.97270337	      2.13952070
      0.99183333	      4.44524294	     -2.23086643	     -2.67829470	     -0.32343101	      1.08232394	      0.30537683	     -2.23941884	      8.23798249	     -2.14174893	     -6.30429575	     -1.29346654	     -9.13316690	      7.74269762	     11.23386184	     -3.13321658	      0.45095639	    -56.64941679	     -0.53443250	    -11.40752406	     14.34696818	     -0.78715213	      7.01764656	      2.69465303
      0.99600000	      4.43779277	     -2.22570432	     -2.76834966	     -0.31856894	      1.08266734	      0.30570700	     -2.68607432	      8.23426885	     -2.01438568	     -5.97597514	     -1.25489565	     -9.09130989	      7.73884457	     11.65711860	     -3.06369794	      0.68898886	    -55.97698054	     -0.24078540	    -11.62378514	     14.25961081	     -0.70382293	      6.98906718	      2.76684687
      1.00016667	      4.39945433	     -2.22085342	     -2.95151322	     -0.31387689	      1.08292573	      0.30609118	     -3.07249534	      8.21971385	     -1.78197963	     -5.70211000	     -1.20564290	     -9.08148654	      7.71048791	     12.10118573	     -3.00974619	      0.81543259	    -55.27140436	     -0.03730896	    -12.28275483	     13.77442843	     -0.82023569	      6.99336383	      3.07894537
      1.00433333	      4.35514973	     -2.20255325	     -3.05680597	     -0.30906028	      1.08316462	      0.30630645	     -3.46039767	      8.18654903	     -1.69585268	     -5.41488093	     -1.17410558	     -9.05640681	      7.70797533	     12.53584601	     -2.91817337	      1.05711331	    -54.50260868	      0.13443789	    -12.40820047	     13.72668018	     -0.79361172	      7.00963877	      3.11084519
      1.00850000	      4.33301315	     -2.20179156	     -3.20792603	     -0.30422985	      1.08339230	      0.30671082	     -3.88247118	      8.18227008	     -1.52304805	     -5.10863427	     -1.11449253	     -9.05472062	      7.69373555	     12.92430703	     -2.87450851	      1.18306758	    -53.71153914	      0.48996307	    -13.00110226	     13.50976605	     -0.72577737	      6.95911413	      3.26930851
      1.01266667	      4.26472832	     -2.20969605	     -3.29321268	     -0.29949916	      1.08348673	      0.30693594	     -4.24153926	      8.18331134	     -1.40385699	     -4.81838304	     -1.08572597	     -9.01677076	      7.69124213	     13.37597824	     -2.82023963	      1.43497628	    -52.89099159	      0.59182820	    -13.14217480	     13.46052852	     -0.74622967	      6.99274560	      3.30590931
      1.01683333	      4.23393370	     -2.22733170	     -3.44074624	     -0.29475221	      1.08361964	      0.30733512	     -4.66039727	      8.19587790	     -1.11858379	     -4.49082908	     -1.02947794	     -9.02520972	      7.65524277	     13.75734402	     -2.80313784	      1.54870698	    -52.01129082	      0.54944058	    -14.10503058	     12.97070323	     -0.73748249	      6.98789951	      3.66887801
      1.02100000	      4.17356836	     -2.23059974	     -3.53315548	     -0.28997194	      1.08367349	      0.30751210	     -5.02389111	      8.18325430	     -1.05495785	     -4.21595920	     -0.99484336	     -9.00466190	      7.65129599	     14.16153193	     -2.74500122	      1.77912282	    -51.10017553	      0.68431413	    -14.21709661	     12.91464546	     -0.71438429	      7.03503775	      3.69960211
      1.02516667	      4.15145981	     -2.25839947	     -3.59636125	     -0.28510938	      1.08373329	      0.30783110	     -5.46453178	      8.21447623	     -0.90480484	     -3.86821612	     -0.93774438	     -8.96780005	      7.64212349	     14.50880259	     -2.73085848	      1.97439833	    -50.16511906	      0.87788296	    -14.59288805	     12.78751156	     -0.57507998	      7.02474140	      3.80028168
      1.02933333	      4.08291390	     -2.25797822	     -3.78570149	     -0.28034509	      1.08372386	      0.30811051	     -5.81230818	      8.18420781	     -0.74266506	     -3.61490787	     -0.86532609	     -9.00081045	      7.61037622	     14.87385473	     -2.69531057	      2.05764841	    -49.15667348	      0.83664065	    -15.39843549	     12.41480372	     -0.60827219	      7.02364228	      4.02479466
      1.03350000	      4.04173599	     -2.30395714	     -3.80462182	     -0.27558029	      1.08365254	      0.30828658	     -6.22185738	      8.23133437	     -0.62507801	     -3.27999173	     -0.83575078	     -8.94675526	      7.60167411	     15.23492513	     -2.68738987	      2.31825865	    -48.16209908	      0.87213685	    -15.55306009	     12.30371099	     -0.55088748	      7.09680153	      4.08479133
